<svg version="1.1" xmlns="http://www.w3.org/2000/svg" xmlns:xlink="http://www.w3.org/1999/xlink" width="509.28571" height="396.42856" viewBox="0,0,509.28571,396.42856"><g transform="translate(-138.92858,23.57142)"><g data-paper-data="{&quot;isPaintingLayer&quot;:true}" fill-rule="nonzero" stroke="none" stroke-width="0" stroke-linecap="butt" stroke-linejoin="miter" stroke-miterlimit="10" stroke-dasharray="" stroke-dashoffset="0" style="mix-blend-mode: normal"><path d="M138.92858,104.28571v-74.28572h509.28571v74.28572z" fill-opacity="0.70196" fill="#000000"/><path d="M138.92858,50.71429v-74.28571h509.28571v74.28571z" fill-opacity="0.90196" fill="#ffffff"/><path d="M138.92858,372.85714v-74.28572h509.28571v74.28572z" fill-opacity="0.70196" fill="#000000"/><path d="M138.92858,292.22222v-182.06348h104.79622v182.06349z" fill-opacity="0.2" fill="#ffffff"/><path d="M168.72445,244.9774v-45.92143h45.20448v45.92143z" fill-opacity="0.2" fill="#ffffff"/><path d="M191.32669,255.10622l-2.71173,-2.18525l2.71173,-2.18525l2.71173,2.18525z" fill="#ffffff"/><path d="M191.32669,283.28587l-2.71174,-2.18525l2.71174,-2.18525l2.71173,2.18525z" fill="#ffffff"/><path d="M191.32669,129.86332l-2.71174,-2.18525l2.71174,-2.18525l2.71173,2.18525z" fill="#ffffff"/><path d="M191.32669,161.95682l-2.71174,-2.18524l2.71174,-2.18525l2.71173,2.18525z" fill="#ffffff"/><path d="M171.09895,242.56524v-41.09711h40.45548v41.09711z" fill="#ffffff"/></g></g></svg>